<?xml version="1.0" encoding="UTF-8" standalone="no"?>
<svg
   version="1.1"
   xmlns="http://www.w3.org/2000/svg"
   viewBox="0 0 512 512"
   width="512"
   height="512">
  <g transform="translate(0.000000,512.000000) scale(0.100000,-0.100000)"
fill="#554F46" stroke="none">
<path d="M1 3288 l1 -1833 23 91 c94 358 305 601 590 679 33 9 118 19 191 22
203 8 339 -26 482 -121 66 -43 145 -119 189 -181 12 -16 23 -28 26 -25 2 3 -5
59 -15 125 -16 101 -20 193 -25 583 l-5 462 316 0 316 0 0 -445 0 -445 43 0
43 0 214 -352 c118 -193 220 -351 225 -350 6 1 107 160 225 352 l215 350 258
0 c231 0 265 2 330 21 49 14 113 23 203 26 203 8 339 -26 482 -121 66 -43 145
-119 189 -181 12 -16 23 -28 26 -25 2 3 -5 59 -15 125 -16 101 -20 193 -25
583 l-5 462 311 0 311 0 0 1015 0 1015 -2560 0 -2560 0 1 -1832z"/>
<path d="M951 1739 c-147 -29 -257 -149 -311 -339 -32 -115 -47 -325 -32 -468
21 -213 73 -344 169 -432 89 -81 211 -113 353 -91 141 22 244 91 300 200 57
112 85 345 70 571 -15 229 -57 364 -141 450 -88 90 -264 137 -408 109z"/>
<path d="M3991 1739 c-147 -29 -257 -149 -311 -339 -32 -115 -47 -325 -32
-468 21 -213 73 -344 169 -432 89 -81 211 -113 353 -91 141 22 244 91 300 200
57 112 85 345 70 571 -15 229 -57 364 -141 450 -88 90 -264 137 -408 109z"/>
<path d="M2090 1100 l0 -175 55 82 c30 46 55 86 55 91 0 5 -25 47 -55 93 l-55
84 0 -175z"/>
<path d="M2408 388 c-203 -329 -228 -371 -228 -382 0 -3 196 -6 436 -6 346 0
434 3 427 13 -4 6 -8 15 -8 18 0 6 -360 597 -400 657 l-22 33 -205 -333z"/>
<path d="M0 353 l0 -353 218 0 c162 1 212 3 198 12 -22 12 -52 37 -114 93
-116 104 -223 295 -272 486 l-29 114 -1 -352z"/>
<path d="M1425 184 c-36 -51 -64 -79 -137 -140 -14 -12 -34 -26 -44 -32 -15
-9 9 -11 101 -12 l119 0 27 32 c53 61 54 70 26 140 -13 35 -31 64 -38 65 -8 1
-32 -23 -54 -53z"/>
<path d="M4465 184 c-36 -51 -64 -79 -137 -140 -14 -12 -34 -26 -44 -32 -14
-9 25 -11 159 -12 l177 0 -7 28 c-14 57 -82 207 -95 209 -7 1 -31 -23 -53 -53z"/>
</g>
  <g transform="translate(0.000000,512.000000) scale(0.100000,-0.100000)"
fill="#FFFFFF" stroke="none">
<path d="M5110 4105 l0 -1015 -300 0 -300 0 0 -403 c0 -388 7 -537 34 -695 15
-85 5 -100 -32 -51 -14 19 -58 66 -98 106 -133 131 -302 194 -524 195 -457 2
-747 -281 -846 -827 -25 -140 -26 -526 -1 -670 58 -330 192 -573 390 -706 l59
-39 814 0 814 0 0 2560 c0 1408 -2 2560 -5 2560 -3 0 -5 -457 -5 -1015z m-885
-2371 c119 -30 198 -96 251 -209 48 -102 65 -194 71 -400 10 -333 -35 -516
-154 -625 -83 -76 -141 -95 -298 -95 -127 0 -132 1 -197 33 -154 75 -236 236
-257 504 -11 130 0 320 23 421 44 191 130 308 264 363 70 29 205 33 297 8z
m353 -1592 c23 -59 42 -110 42 -112 0 -3 -72 -5 -160 -5 -88 0 -160 2 -159 5
0 3 24 23 52 46 29 22 75 70 102 106 28 37 57 67 65 67 10 1 29 -36 58 -107z"/>
<path d="M1470 2676 c0 -227 3 -428 6 -445 l7 -31 298 0 299 0 0 445 0 445
-305 0 -305 0 0 -414z"/>
<path d="M770 2243 c-92 -7 -198 -36 -290 -80 -81 -39 -108 -59 -186 -137
-134 -134 -208 -270 -265 -491 -23 -87 -24 -103 -24 -465 l0 -375 27 -95 c59
-211 153 -377 279 -494 39 -36 75 -66 80 -66 5 0 9 -3 9 -7 0 -5 -90 -7 -200
-5 -175 2 -200 1 -200 -13 0 -14 78 -15 737 -13 598 3 737 5 741 16 3 11 -19
13 -107 10 -61 -2 -111 -1 -110 2 0 3 24 23 52 46 29 22 75 70 102 106 28 37
57 67 65 67 10 1 25 -23 41 -66 l26 -66 266 402 267 402 0 180 0 179 -296 450
c-164 248 -299 449 -301 446 -3 -3 19 -186 30 -250 5 -26 -24 -7 -66 45 -137
168 -321 259 -547 271 -47 2 -105 3 -130 1z m415 -509 c119 -30 198 -96 251
-209 48 -102 65 -194 71 -400 10 -333 -35 -516 -154 -625 -83 -76 -141 -95
-298 -95 -127 0 -132 1 -197 33 -154 75 -236 236 -257 504 -11 130 0 320 23
421 44 191 130 308 264 363 70 29 205 33 297 8z"/>
<path d="M2186 15 c-5 -13 47 -15 431 -15 386 0 434 2 423 15 -19 23 -845 23
-854 0z"/>
</g>
  <g transform="translate(0.000000,512.000000) scale(0.100000,-0.100000)"
fill="#4EA097" stroke="none">
<path d="M5115 4105 c0 -561 1 -789 2 -507 2 283 2 742 0 1020 -1 279 -2 48
-2 -513z"/>
<path d="M1528 2128 c102 -152 549 -833 553 -843 2 -5 31 -49 63 -97 l59 -88
-59 -87 c-32 -49 -61 -93 -64 -99 -3 -6 -135 -208 -295 -448 l-289 -436 -111
0 c-76 -1 -118 -5 -135 -15 -22 -12 119 -14 1098 -15 617 0 1122 2 1122 3 0 2
-24 20 -54 41 -98 67 -196 187 -263 321 -150 297 -183 821 -78 1215 28 102 94
250 146 327 75 110 207 226 312 273 l42 20 -260 0 -260 0 -220 -356 c-198
-321 -220 -354 -233 -337 -7 10 -106 170 -219 356 l-206 337 -349 0 -349 0 49
-72z m1297 -1751 c114 -186 205 -340 203 -343 -3 -2 -192 -3 -421 -2 l-416 3
211 342 c117 189 212 342 214 340 1 -1 95 -154 209 -340z"/>
<path d="M0 15 c0 -13 31 -15 218 -15 193 1 214 2 192 15 -38 22 -410 22 -410
0z"/>
<path d="M4290 15 c-22 -13 -7 -14 153 -15 139 0 178 3 175 13 -7 19 -295 21
-328 2z"/>
</g>
</svg>
